<svg width="20" height="20" viewBox="0 0 20 20" fill="none" xmlns="http://www.w3.org/2000/svg">
<path d="M7.29949 0C6.17949 0 5.29128 -8.0237e-08 4.57641 0.0584615C3.8441 0.117949 3.22564 0.243077 2.66051 0.530256C1.74358 0.997615 0.998199 1.74335 0.531282 2.66051C0.243077 3.22462 0.117949 3.8441 0.0584615 4.57641C-8.0237e-08 5.29128 0 6.17949 0 7.29949V12.7005C0 13.8205 -8.0237e-08 14.7087 0.0584615 15.4236C0.117949 16.1559 0.243077 16.7744 0.530256 17.3405C0.99779 18.2571 1.74351 19.0021 2.66051 19.4687C3.22462 19.7569 3.8441 19.8821 4.57641 19.9415C5.29128 20 6.17949 20 7.29949 20H12.7005C13.8205 20 14.7087 20 15.4236 19.9415C16.1559 19.8821 16.7744 19.7569 17.3405 19.4697C18.2569 19.0025 19.0019 18.2571 19.4687 17.3405C19.7569 16.7744 19.8821 16.1559 19.9415 15.4236C20 14.7087 20 13.8205 20 12.7005V7.29949C20 6.17949 20 5.29128 19.9415 4.57641C19.8821 3.8441 19.7569 3.22564 19.4697 2.66051C19.0027 1.74373 18.2573 0.998374 17.3405 0.531282C16.7744 0.243077 16.1559 0.117949 15.4236 0.0584615C14.7087 -8.0237e-08 13.8205 0 12.7005 0H7.29949ZM5.96923 4.75487C6.13628 4.63801 6.3429 4.59225 6.54367 4.62764C6.74445 4.66302 6.92296 4.77666 7.04 4.94359L10 9.17128L12.96 4.94359C13.077 4.77644 13.2555 4.66259 13.4565 4.6271C13.6574 4.59162 13.8641 4.63739 14.0313 4.75436C14.1984 4.87133 14.3123 5.0499 14.3478 5.25081C14.3833 5.45171 14.3375 5.65849 14.2205 5.82564L11.4779 9.74359H13.2626C13.4666 9.74359 13.6622 9.82463 13.8065 9.96889C13.9508 10.1132 14.0318 10.3088 14.0318 10.5128C14.0318 10.7168 13.9508 10.9125 13.8065 11.0567C13.6622 11.201 13.4666 11.2821 13.2626 11.2821H10.7703V12.3077H13.2626C13.4666 12.3077 13.6622 12.3887 13.8065 12.533C13.9508 12.6773 14.0318 12.8729 14.0318 13.0769C14.0318 13.2809 13.9508 13.4766 13.8065 13.6209C13.6622 13.7651 13.4666 13.8462 13.2626 13.8462H10.7703V15.641C10.7703 15.845 10.6892 16.0407 10.545 16.185C10.4007 16.3292 10.205 16.4103 10.001 16.4103C9.79701 16.4103 9.60136 16.3292 9.4571 16.185C9.31284 16.0407 9.2318 15.845 9.2318 15.641V13.8462H6.73539C6.53137 13.8462 6.33572 13.7651 6.19146 13.6209C6.0472 13.4766 5.96615 13.2809 5.96615 13.0769C5.96615 12.8729 6.0472 12.6773 6.19146 12.533C6.33572 12.3887 6.53137 12.3077 6.73539 12.3077H9.22974V11.2821H6.73641C6.5324 11.2821 6.33674 11.201 6.19248 11.0567C6.04822 10.9125 5.96718 10.7168 5.96718 10.5128C5.96718 10.3088 6.04822 10.1132 6.19248 9.96889C6.33674 9.82463 6.5324 9.74359 6.73641 9.74359H8.52308L5.78051 5.82564C5.66365 5.65859 5.61789 5.45198 5.65328 5.2512C5.68866 5.05043 5.8023 4.87191 5.96923 4.75487Z" fill="#FEFEFF"/>
</svg>
