<svg width="20" height="15" viewBox="0 0 20 15" fill="none" xmlns="http://www.w3.org/2000/svg">
<path d="M9.26816 9.59874L16.8544 1.74106C16.9506 1.64139 17.0648 1.56232 17.1906 1.50838C17.3163 1.45444 17.451 1.42668 17.5871 1.42668C17.7232 1.42668 17.858 1.45444 17.9837 1.50838C18.1094 1.56232 18.2237 1.64139 18.3199 1.74106C18.4161 1.84073 18.4924 1.95906 18.5445 2.08928C18.5966 2.21951 18.6234 2.35908 18.6234 2.50004C18.6234 2.64099 18.5966 2.78057 18.5445 2.9108C18.4924 3.04102 18.4161 3.15935 18.3199 3.25902L10.7337 11.1167C10.6375 11.2164 10.5232 11.2954 10.3975 11.3494C10.2718 11.4033 10.137 11.4311 10.0009 11.4311C9.86483 11.4311 9.73008 11.4033 9.60435 11.3494C9.47863 11.2954 9.36439 11.2164 9.26816 11.1167C9.17193 11.017 9.0956 10.8987 9.04352 10.7685C8.99145 10.6382 8.96464 10.4987 8.96464 10.3577C8.96464 10.2168 8.99145 10.0772 9.04352 9.94696C9.0956 9.81674 9.17193 9.69841 9.26816 9.59874ZM10.4949 5.74133C10.6316 5.76023 10.7705 5.75064 10.9035 5.71313C11.0366 5.67561 11.161 5.61093 11.2696 5.52288C11.3781 5.43483 11.4686 5.3252 11.5357 5.20041C11.6027 5.07563 11.645 4.93822 11.6601 4.79626C11.6751 4.6543 11.6626 4.51065 11.6233 4.37377C11.584 4.23688 11.5187 4.10951 11.4312 3.99915C11.3437 3.8888 11.2357 3.79767 11.1137 3.73114C10.9917 3.6646 10.8581 3.624 10.7207 3.61172C10.4814 3.58414 10.2408 3.57043 10.0001 3.57065C8.26299 3.57254 6.5976 4.28812 5.3693 5.56036C4.14101 6.83261 3.45016 8.5576 3.44833 10.3568C3.44833 10.641 3.55732 10.9135 3.75133 11.1145C3.94533 11.3154 4.20845 11.4283 4.48282 11.4283C4.75718 11.4283 5.0203 11.3154 5.21431 11.1145C5.40831 10.9135 5.5173 10.641 5.5173 10.3568C5.51867 9.12581 5.9914 7.94563 6.83178 7.07517C7.67216 6.20471 8.81158 5.71507 10.0001 5.71365C10.1654 5.71394 10.3305 5.72318 10.4949 5.74133ZM19.2483 6.41102C19.1433 6.14827 18.9418 5.93951 18.6881 5.83067C18.4344 5.72182 18.1494 5.72181 17.8957 5.83062C17.6421 5.93944 17.4405 6.14818 17.3354 6.41091C17.2304 6.67365 17.2303 6.96886 17.3354 7.23161C18.0435 9.02184 18.1222 11.0128 17.5578 12.857H2.44316C2.06768 11.6253 1.97718 10.3194 2.17896 9.04472C2.38075 7.77008 2.86917 6.56248 3.60476 5.51948C4.34036 4.47647 5.3025 3.6273 6.41345 3.04058C7.52441 2.45386 8.75303 2.14604 10.0001 2.14198H10.0725C11.0844 2.14964 12.0854 2.35913 13.0207 2.75899C13.2738 2.86371 13.5565 2.86081 13.8074 2.75092C14.0584 2.64102 14.2574 2.43302 14.3611 2.17207C14.4649 1.91112 14.4651 1.6183 14.3616 1.35721C14.2582 1.09612 14.0595 0.887835 13.8087 0.7776C12.0234 0.0178656 10.0642 -0.190867 8.16698 0.17656C6.26981 0.543988 4.51571 1.47189 3.11611 2.84844C1.71651 4.22499 0.731132 5.99143 0.278745 7.93485C-0.173641 9.87828 -0.073731 11.9158 0.566435 13.8017C0.685183 14.1512 0.905478 14.454 1.19706 14.6685C1.48864 14.8831 1.83721 14.9989 2.19488 15H17.8044C18.1616 14.9994 18.5098 14.8842 18.8012 14.6702C19.0927 14.4563 19.313 14.1541 19.432 13.8053C20.2482 11.4006 20.1829 8.76906 19.2483 6.41102Z" fill="#78767E"/>
</svg>
