<svg width="23" height="24" viewBox="0 0 23 24" fill="none" xmlns="http://www.w3.org/2000/svg">
<path d="M7.85958 2.05831V21.9413M0.842041 8.95889C0.842041 6.33901 0.842041 5.02907 1.35198 4.0279C1.80051 3.14765 2.51618 2.43198 3.39643 1.98345C4.3976 1.47351 5.70754 1.47351 8.32742 1.47351H14.4093C17.0292 1.47351 18.3391 1.47351 19.3403 1.98345C20.2205 2.43198 20.9362 3.14765 21.3847 4.0279C21.8947 5.02907 21.8947 6.33901 21.8947 8.95889V15.0408C21.8947 17.6606 21.8947 18.9706 21.3847 19.9718C20.9362 20.852 20.2205 21.5677 19.3403 22.0162C18.3391 22.5261 17.0292 22.5261 14.4093 22.5261H8.32742C5.70754 22.5261 4.3976 22.5261 3.39643 22.0162C2.51618 21.5677 1.80051 20.852 1.35198 19.9718C0.842041 18.9706 0.842041 17.6606 0.842041 15.0408V8.95889Z" stroke="#78767E" stroke-width="1.57895" stroke-linecap="round" stroke-linejoin="round"/>
</svg>
