<svg width="18" height="20" viewBox="0 0 18 20" fill="none" xmlns="http://www.w3.org/2000/svg">
<path d="M0 18.7V7.40071C0 7.06792 0.0737142 6.7529 0.221143 6.45564C0.368571 6.15838 0.571714 5.91355 0.830571 5.72116L7.75414 0.41989C8.11671 0.139964 8.53071 0 8.99614 0C9.46157 0 9.87814 0.139964 10.2459 0.41989L17.1694 5.71986C17.4291 5.91225 17.6323 6.15751 17.7789 6.45564C17.9263 6.7529 18 7.06792 18 7.40071V18.7C18 19.0484 17.8719 19.3522 17.6156 19.6113C17.3593 19.8704 17.0589 20 16.7143 20H12.3634C12.0686 20 11.8217 19.8995 11.6229 19.6984C11.424 19.4965 11.3246 19.2469 11.3246 18.9496V12.7501C11.3246 12.4528 11.2251 12.2037 11.0263 12.0026C10.8266 11.8007 10.5797 11.6997 10.2857 11.6997H7.71429C7.42029 11.6997 7.17386 11.8007 6.975 12.0026C6.77529 12.2037 6.67543 12.4528 6.67543 12.7501V18.9509C6.67543 19.2482 6.576 19.4973 6.37714 19.6984C6.17829 19.8995 5.93186 20 5.63786 20H1.28571C0.941143 20 0.640714 19.8704 0.384428 19.6113C0.128143 19.3522 0 19.0484 0 18.7Z" fill="#78767E"/>
</svg>
