<svg width="20" height="16" viewBox="0 0 20 16" fill="none" xmlns="http://www.w3.org/2000/svg">
<path d="M0 1.875C0 1.37772 0.197544 0.900805 0.549175 0.549175C0.900805 0.197544 1.37772 0 1.875 0H18.125C18.6223 0 19.0992 0.197544 19.4508 0.549175C19.8025 0.900805 20 1.37772 20 1.875V3.75H0V1.875Z" fill="#78767E"/>
<path fill-rule="evenodd" clip-rule="evenodd" d="M0 5.875H20V14C20 14.4973 19.8025 14.9742 19.4508 15.3258C19.0992 15.6775 18.6223 15.875 18.125 15.875H1.875C1.37772 15.875 0.900805 15.6775 0.549175 15.3258C0.197544 14.9742 0 14.4973 0 14V5.875ZM3.75 9.625C3.75 9.45924 3.81585 9.30027 3.93306 9.18306C4.05027 9.06585 4.20924 9 4.375 9H9.375C9.54076 9 9.69973 9.06585 9.81694 9.18306C9.93415 9.30027 10 9.45924 10 9.625C10 9.79076 9.93415 9.94973 9.81694 10.0669C9.69973 10.1842 9.54076 10.25 9.375 10.25H4.375C4.20924 10.25 4.05027 10.1842 3.93306 10.0669C3.81585 9.94973 3.75 9.79076 3.75 9.625ZM4.375 11.5C4.20924 11.5 4.05027 11.5658 3.93306 11.6831C3.81585 11.8003 3.75 11.9592 3.75 12.125C3.75 12.2908 3.81585 12.4497 3.93306 12.5669C4.05027 12.6842 4.20924 12.75 4.375 12.75H8.125C8.29076 12.75 8.44973 12.6842 8.56694 12.5669C8.68415 12.4497 8.75 12.2908 8.75 12.125C8.75 11.9592 8.68415 11.8003 8.56694 11.6831C8.44973 11.5658 8.29076 11.5 8.125 11.5H4.375Z" fill="#78767E"/>
</svg>
