<svg width="22" height="24" viewBox="0 0 22 24" fill="none" xmlns="http://www.w3.org/2000/svg">
<path d="M12.9265 21.4735C12.7414 21.7925 12.4758 22.0574 12.1562 22.2414C11.8366 22.4255 11.4742 22.5224 11.1054 22.5224C10.7366 22.5224 10.3742 22.4255 10.0546 22.2414C9.73504 22.0574 9.46941 21.7925 9.28435 21.4735M17.4212 8.21035C17.4212 6.42404 16.7559 4.71035 15.5717 3.4472C14.3875 2.18404 12.7791 1.47351 11.1054 1.47351C9.43171 1.47351 7.82435 2.18298 6.63908 3.4472C5.45487 4.71035 4.78961 6.42404 4.78961 8.21035C4.78961 16.0704 1.63171 18.3156 1.63171 18.3156H20.5791C20.5791 18.3156 17.4212 16.0704 17.4212 8.21035Z" stroke="#78767E" stroke-width="1.57895" stroke-linecap="round" stroke-linejoin="round"/>
</svg>
