<svg width="22" height="22" viewBox="0 0 22 22" fill="none" xmlns="http://www.w3.org/2000/svg">
<path fill-rule="evenodd" clip-rule="evenodd" d="M11.4347 1.73667H10.2495L9.57053 4.45035L8.88948 4.66088C8.49262 4.78317 8.10812 4.94246 7.74106 5.13667L7.11053 5.47035L4.71053 4.03035L3.87264 4.8693L5.31264 7.2693L4.97895 7.89877C4.78439 8.2658 4.62474 8.6503 4.50211 9.0472L4.29264 9.72825L1.57895 10.4072V11.5925L4.29264 12.2714L4.50316 12.9525C4.62457 13.3511 4.78316 13.7339 4.97895 14.1009L5.31264 14.7314L3.87264 17.1314L4.71159 17.9693L7.11159 16.5293L7.74106 16.863C8.10808 17.0581 8.49088 17.217 8.88948 17.3398L9.57053 17.5493L10.2495 20.263H11.4347L12.1137 17.5493L12.7947 17.3388C13.1916 17.2165 13.5761 17.0572 13.9432 16.863L14.5737 16.5293L16.9737 17.9693L17.8116 17.1304L16.3716 14.7304L16.7053 14.1009C16.9004 13.7339 17.0593 13.3511 17.1821 12.9525L17.3916 12.2714L20.1053 11.5925V10.4072L17.3916 9.72825L17.1811 9.0472C17.0588 8.65034 16.8995 8.26584 16.7053 7.89877L16.3716 7.26825L17.8116 4.86825L16.9726 4.03035L14.5726 5.47035L13.9432 5.13667C13.5761 4.9421 13.1916 4.78245 12.7947 4.65983L12.1137 4.45035L11.4347 1.73667ZM14.5347 4.02088L16.4642 2.86298C16.6654 2.74231 16.9011 2.69231 17.134 2.72092C17.3669 2.74952 17.5835 2.8551 17.7495 3.02088L18.8211 4.09246C18.9868 4.25846 19.0924 4.47508 19.121 4.70794C19.1496 4.94079 19.0996 5.17653 18.979 5.37772L17.8211 7.30719C18.0526 7.74228 18.2421 8.19842 18.3895 8.67562L20.5716 9.22193C20.7992 9.27895 21.0013 9.4104 21.1456 9.5954C21.29 9.78039 21.3684 10.0083 21.3684 10.243V11.7567C21.3684 11.9913 21.29 12.2193 21.1456 12.4043C21.0013 12.5893 20.7992 12.7207 20.5716 12.7777L18.3895 13.324C18.2421 13.8012 18.0526 14.2574 17.8211 14.6925L18.979 16.6219C19.0996 16.8231 19.1496 17.0589 19.121 17.2917C19.0924 17.5246 18.9868 17.7412 18.8211 17.9072L17.7495 18.9788C17.5835 19.1446 17.3669 19.2501 17.134 19.2787C16.9011 19.3073 16.6654 19.2573 16.4642 19.1367L14.5347 17.9788C14.0997 18.2104 13.6435 18.3998 13.1663 18.5472L12.62 20.7293C12.563 20.9569 12.4315 21.159 12.2465 21.3033C12.0615 21.4477 11.8336 21.5261 11.599 21.5261H10.0853C9.85061 21.5261 9.62268 21.4477 9.43768 21.3033C9.25269 21.159 9.12124 20.9569 9.06422 20.7293L8.5179 18.5472C8.04495 18.401 7.58679 18.2107 7.14948 17.9788L5.22001 19.1367C5.01882 19.2573 4.78308 19.3073 4.55022 19.2787C4.31737 19.2501 4.10074 19.1446 3.93474 18.9788L2.86316 17.9072C2.69738 17.7412 2.59181 17.5246 2.5632 17.2917C2.5346 17.0589 2.5846 16.8231 2.70527 16.6219L3.86316 14.6925C3.63121 14.2551 3.4409 13.797 3.29474 13.324L1.11264 12.7777C0.885185 12.7207 0.683268 12.5895 0.538915 12.4047C0.394561 12.2199 0.316037 11.9922 0.315796 11.7577V10.244C0.315802 10.0094 0.394219 9.78144 0.538591 9.59645C0.682963 9.41146 0.88501 9.28001 1.11264 9.22299L3.29474 8.67667C3.44211 8.19948 3.63159 7.74334 3.86316 7.30825L2.70527 5.37877C2.5846 5.17758 2.5346 4.94185 2.5632 4.70899C2.59181 4.47614 2.69738 4.25951 2.86316 4.09351L3.93474 3.02088C4.10074 2.8551 4.31737 2.74952 4.55022 2.72092C4.78308 2.69231 5.01882 2.74231 5.22001 2.86298L7.14948 4.02088C7.58457 3.7893 8.04071 3.59983 8.5179 3.45246L9.06422 1.27035C9.1212 1.0429 9.25249 0.840983 9.43727 0.696629C9.62205 0.552276 9.84974 0.473751 10.0842 0.473511H11.5979C11.8326 0.473517 12.0605 0.551934 12.2455 0.696306C12.4305 0.840678 12.5619 1.04272 12.619 1.27035L13.1653 3.45246C13.6425 3.59983 14.0986 3.7893 14.5337 4.02088H14.5347ZM10.8421 13.9472C11.6238 13.9472 12.3735 13.6367 12.9262 13.0839C13.479 12.5312 13.7895 11.7815 13.7895 10.9998C13.7895 10.2181 13.479 9.46846 12.9262 8.91572C12.3735 8.36298 11.6238 8.05246 10.8421 8.05246C10.0604 8.05246 9.31075 8.36298 8.75801 8.91572C8.20527 9.46846 7.89474 10.2181 7.89474 10.9998C7.89474 11.7815 8.20527 12.5312 8.75801 13.0839C9.31075 13.6367 10.0604 13.9472 10.8421 13.9472ZM10.8421 15.2104C9.72541 15.2104 8.65445 14.7667 7.86482 13.9771C7.07519 13.1875 6.63159 12.1165 6.63159 10.9998C6.63159 9.88313 7.07519 8.81216 7.86482 8.02253C8.65445 7.23291 9.72541 6.7893 10.8421 6.7893C11.9588 6.7893 13.0298 7.23291 13.8194 8.02253C14.609 8.81216 15.0526 9.88313 15.0526 10.9998C15.0526 12.1165 14.609 13.1875 13.8194 13.9771C13.0298 14.7667 11.9588 15.2104 10.8421 15.2104Z" fill="#78767E"/>
</svg>
